<mxfile host="app.diagrams.net" modified="2021-01-11T01:33:43.230Z" agent="5.0 (Macintosh; Intel Mac OS X 10_15_7) AppleWebKit/537.36 (KHTML, like Gecko) Chrome/87.0.4280.88 Safari/537.36" etag="itxwz3I35g3Nb40mErEV" version="14.1.8" type="github">
  <diagram id="wPGIRdqih6rLCwDsnjtP" name="Page-1">
    <mxGraphModel dx="946" dy="562" grid="1" gridSize="10" guides="1" tooltips="1" connect="1" arrows="1" fold="1" page="1" pageScale="1" pageWidth="3300" pageHeight="4681" background="#ffffff" math="0" shadow="0">
      <root>
        <mxCell id="0" />
        <mxCell id="1" parent="0" />
        <mxCell id="P9X_Pd3vxrv1BOMygBLZ-1" value="" style="rounded=0;whiteSpace=wrap;html=1;" vertex="1" parent="1">
          <mxGeometry x="40" y="25" width="830" height="535" as="geometry" />
        </mxCell>
        <mxCell id="P9X_Pd3vxrv1BOMygBLZ-2" value="" style="rounded=0;whiteSpace=wrap;html=1;fillColor=#379CFF;" vertex="1" parent="1">
          <mxGeometry x="200" y="90" width="190" height="370" as="geometry" />
        </mxCell>
        <mxCell id="P9X_Pd3vxrv1BOMygBLZ-7" value="&lt;font color=&quot;#ffffff&quot;&gt;网络&lt;/font&gt;" style="rounded=1;whiteSpace=wrap;html=1;fillColor=#7348DB;" vertex="1" parent="1">
          <mxGeometry x="225" y="389" width="140" height="40" as="geometry" />
        </mxCell>
        <mxCell id="P9X_Pd3vxrv1BOMygBLZ-15" value="&lt;font style=&quot;font-size: 16px&quot;&gt;应用层&lt;/font&gt;" style="text;html=1;strokeColor=none;fillColor=none;align=center;verticalAlign=middle;whiteSpace=wrap;rounded=0;" vertex="1" parent="1">
          <mxGeometry x="120" y="127" width="60" height="22" as="geometry" />
        </mxCell>
        <mxCell id="P9X_Pd3vxrv1BOMygBLZ-16" value="&lt;font style=&quot;font-size: 16px&quot;&gt;传输层&lt;/font&gt;" style="text;html=1;strokeColor=none;fillColor=none;align=center;verticalAlign=middle;whiteSpace=wrap;rounded=0;" vertex="1" parent="1">
          <mxGeometry x="120" y="217" width="60" height="22" as="geometry" />
        </mxCell>
        <mxCell id="P9X_Pd3vxrv1BOMygBLZ-17" value="&lt;font style=&quot;font-size: 16px&quot;&gt;网络层&lt;/font&gt;" style="text;html=1;strokeColor=none;fillColor=none;align=center;verticalAlign=middle;whiteSpace=wrap;rounded=0;" vertex="1" parent="1">
          <mxGeometry x="120" y="307" width="60" height="22" as="geometry" />
        </mxCell>
        <mxCell id="P9X_Pd3vxrv1BOMygBLZ-18" value="&lt;font style=&quot;font-size: 16px&quot;&gt;数据链路层&lt;/font&gt;" style="text;html=1;strokeColor=none;fillColor=none;align=center;verticalAlign=middle;whiteSpace=wrap;rounded=0;" vertex="1" parent="1">
          <mxGeometry x="90" y="404" width="90" height="22" as="geometry" />
        </mxCell>
        <mxCell id="P9X_Pd3vxrv1BOMygBLZ-19" value="&lt;font color=&quot;#ffffff&quot;&gt;IP&lt;/font&gt;" style="rounded=1;whiteSpace=wrap;html=1;fillColor=#7348DB;" vertex="1" parent="1">
          <mxGeometry x="225" y="298" width="140" height="40" as="geometry" />
        </mxCell>
        <mxCell id="P9X_Pd3vxrv1BOMygBLZ-20" value="&lt;font color=&quot;#ffffff&quot;&gt;TCP&lt;/font&gt;" style="rounded=1;whiteSpace=wrap;html=1;fillColor=#7348DB;" vertex="1" parent="1">
          <mxGeometry x="225" y="208" width="140" height="40" as="geometry" />
        </mxCell>
        <mxCell id="P9X_Pd3vxrv1BOMygBLZ-21" value="&lt;font color=&quot;#ffffff&quot;&gt;HTTP 客户端&lt;/font&gt;" style="rounded=1;whiteSpace=wrap;html=1;fillColor=#7348DB;" vertex="1" parent="1">
          <mxGeometry x="225" y="118" width="140" height="40" as="geometry" />
        </mxCell>
        <mxCell id="P9X_Pd3vxrv1BOMygBLZ-22" value="" style="rounded=0;whiteSpace=wrap;html=1;fillColor=#379CFF;" vertex="1" parent="1">
          <mxGeometry x="570" y="90" width="190" height="370" as="geometry" />
        </mxCell>
        <mxCell id="P9X_Pd3vxrv1BOMygBLZ-23" value="&lt;font color=&quot;#ffffff&quot;&gt;网络&lt;/font&gt;" style="rounded=1;whiteSpace=wrap;html=1;fillColor=#7348DB;" vertex="1" parent="1">
          <mxGeometry x="595" y="389" width="140" height="40" as="geometry" />
        </mxCell>
        <mxCell id="P9X_Pd3vxrv1BOMygBLZ-24" value="&lt;font color=&quot;#ffffff&quot;&gt;IP&lt;/font&gt;" style="rounded=1;whiteSpace=wrap;html=1;fillColor=#7348DB;" vertex="1" parent="1">
          <mxGeometry x="595" y="298" width="140" height="40" as="geometry" />
        </mxCell>
        <mxCell id="P9X_Pd3vxrv1BOMygBLZ-25" value="&lt;font color=&quot;#ffffff&quot;&gt;TCP&lt;/font&gt;" style="rounded=1;whiteSpace=wrap;html=1;fillColor=#7348DB;" vertex="1" parent="1">
          <mxGeometry x="595" y="208" width="140" height="40" as="geometry" />
        </mxCell>
        <mxCell id="P9X_Pd3vxrv1BOMygBLZ-26" value="&lt;font color=&quot;#ffffff&quot;&gt;HTTP服务端&lt;/font&gt;" style="rounded=1;whiteSpace=wrap;html=1;fillColor=#7348DB;" vertex="1" parent="1">
          <mxGeometry x="595" y="118" width="140" height="40" as="geometry" />
        </mxCell>
        <mxCell id="P9X_Pd3vxrv1BOMygBLZ-27" value="" style="endArrow=classic;startArrow=classic;html=1;entryX=0.5;entryY=1;entryDx=0;entryDy=0;exitX=0.5;exitY=0;exitDx=0;exitDy=0;" edge="1" parent="1" source="P9X_Pd3vxrv1BOMygBLZ-20" target="P9X_Pd3vxrv1BOMygBLZ-21">
          <mxGeometry width="50" height="50" relative="1" as="geometry">
            <mxPoint x="280" y="220" as="sourcePoint" />
            <mxPoint x="330" y="170" as="targetPoint" />
          </mxGeometry>
        </mxCell>
        <mxCell id="P9X_Pd3vxrv1BOMygBLZ-28" value="" style="endArrow=classic;startArrow=classic;html=1;entryX=0.5;entryY=1;entryDx=0;entryDy=0;exitX=0.5;exitY=0;exitDx=0;exitDy=0;" edge="1" parent="1">
          <mxGeometry width="50" height="50" relative="1" as="geometry">
            <mxPoint x="294.5" y="300" as="sourcePoint" />
            <mxPoint x="294.5" y="250" as="targetPoint" />
          </mxGeometry>
        </mxCell>
        <mxCell id="P9X_Pd3vxrv1BOMygBLZ-29" value="" style="endArrow=classic;startArrow=classic;html=1;entryX=0.5;entryY=1;entryDx=0;entryDy=0;exitX=0.5;exitY=0;exitDx=0;exitDy=0;" edge="1" parent="1">
          <mxGeometry width="50" height="50" relative="1" as="geometry">
            <mxPoint x="294.5" y="388" as="sourcePoint" />
            <mxPoint x="294.5" y="338" as="targetPoint" />
          </mxGeometry>
        </mxCell>
        <mxCell id="P9X_Pd3vxrv1BOMygBLZ-30" value="" style="endArrow=classic;startArrow=classic;html=1;entryX=0.5;entryY=1;entryDx=0;entryDy=0;exitX=0.5;exitY=0;exitDx=0;exitDy=0;" edge="1" parent="1">
          <mxGeometry width="50" height="50" relative="1" as="geometry">
            <mxPoint x="664.5" y="208" as="sourcePoint" />
            <mxPoint x="664.5" y="158" as="targetPoint" />
          </mxGeometry>
        </mxCell>
        <mxCell id="P9X_Pd3vxrv1BOMygBLZ-31" value="" style="endArrow=classic;startArrow=classic;html=1;entryX=0.5;entryY=1;entryDx=0;entryDy=0;exitX=0.5;exitY=0;exitDx=0;exitDy=0;" edge="1" parent="1">
          <mxGeometry width="50" height="50" relative="1" as="geometry">
            <mxPoint x="664.5" y="300" as="sourcePoint" />
            <mxPoint x="664.5" y="250" as="targetPoint" />
          </mxGeometry>
        </mxCell>
        <mxCell id="P9X_Pd3vxrv1BOMygBLZ-32" value="" style="endArrow=classic;startArrow=classic;html=1;entryX=0.5;entryY=1;entryDx=0;entryDy=0;exitX=0.5;exitY=0;exitDx=0;exitDy=0;" edge="1" parent="1">
          <mxGeometry width="50" height="50" relative="1" as="geometry">
            <mxPoint x="664.5" y="388" as="sourcePoint" />
            <mxPoint x="664.5" y="338" as="targetPoint" />
          </mxGeometry>
        </mxCell>
        <mxCell id="P9X_Pd3vxrv1BOMygBLZ-33" value="" style="endArrow=classic;startArrow=classic;html=1;exitX=0.5;exitY=1;exitDx=0;exitDy=0;entryX=0.5;entryY=1;entryDx=0;entryDy=0;edgeStyle=orthogonalEdgeStyle;" edge="1" parent="1" source="P9X_Pd3vxrv1BOMygBLZ-2" target="P9X_Pd3vxrv1BOMygBLZ-22">
          <mxGeometry width="50" height="50" relative="1" as="geometry">
            <mxPoint x="430" y="520" as="sourcePoint" />
            <mxPoint x="480" y="470" as="targetPoint" />
            <Array as="points">
              <mxPoint x="295" y="500" />
              <mxPoint x="665" y="500" />
            </Array>
          </mxGeometry>
        </mxCell>
        <mxCell id="P9X_Pd3vxrv1BOMygBLZ-34" value="&lt;span style=&quot;font-size: 11px&quot;&gt;&lt;font color=&quot;#ffffff&quot;&gt;TCP报文&lt;/font&gt;&lt;/span&gt;" style="text;html=1;strokeColor=none;fillColor=none;align=center;verticalAlign=middle;whiteSpace=wrap;rounded=0;" vertex="1" parent="1">
          <mxGeometry x="300" y="173" width="70" height="20" as="geometry" />
        </mxCell>
        <mxCell id="P9X_Pd3vxrv1BOMygBLZ-35" value="&lt;font style=&quot;font-size: 11px&quot; color=&quot;#ffffff&quot;&gt;IP数据包&lt;/font&gt;" style="text;html=1;strokeColor=none;fillColor=none;align=center;verticalAlign=middle;whiteSpace=wrap;rounded=0;" vertex="1" parent="1">
          <mxGeometry x="300" y="265" width="70" height="20" as="geometry" />
        </mxCell>
        <mxCell id="P9X_Pd3vxrv1BOMygBLZ-36" value="&lt;font style=&quot;font-size: 11px&quot; color=&quot;#ffffff&quot;&gt;IP数据包&lt;/font&gt;" style="text;html=1;strokeColor=none;fillColor=none;align=center;verticalAlign=middle;whiteSpace=wrap;rounded=0;" vertex="1" parent="1">
          <mxGeometry x="665" y="265" width="70" height="20" as="geometry" />
        </mxCell>
        <mxCell id="P9X_Pd3vxrv1BOMygBLZ-37" value="&lt;font style=&quot;font-size: 11px&quot; color=&quot;#ffffff&quot;&gt;TCP报文&lt;/font&gt;" style="text;html=1;strokeColor=none;fillColor=none;align=center;verticalAlign=middle;whiteSpace=wrap;rounded=0;" vertex="1" parent="1">
          <mxGeometry x="665" y="173" width="70" height="20" as="geometry" />
        </mxCell>
        <mxCell id="P9X_Pd3vxrv1BOMygBLZ-45" value="" style="rounded=0;whiteSpace=wrap;html=1;fillColor=#FFFFFF;" vertex="1" parent="1">
          <mxGeometry x="100" y="645" width="720" height="265" as="geometry" />
        </mxCell>
        <mxCell id="P9X_Pd3vxrv1BOMygBLZ-46" value="&lt;font color=&quot;#ffffff&quot;&gt;TCP 首部&lt;/font&gt;" style="rounded=0;whiteSpace=wrap;html=1;fillColor=#7348DB;" vertex="1" parent="1">
          <mxGeometry x="245" y="790" width="100" height="40" as="geometry" />
        </mxCell>
        <mxCell id="P9X_Pd3vxrv1BOMygBLZ-47" value="TCP 报文段的数据部分" style="rounded=0;whiteSpace=wrap;html=1;fillColor=#FFFFFF;" vertex="1" parent="1">
          <mxGeometry x="345" y="790" width="330" height="40" as="geometry" />
        </mxCell>
        <mxCell id="P9X_Pd3vxrv1BOMygBLZ-48" value="&lt;font style=&quot;font-size: 17px&quot;&gt;TCP 报文段的首部格式&lt;/font&gt;" style="text;html=1;strokeColor=none;fillColor=none;align=center;verticalAlign=middle;whiteSpace=wrap;rounded=0;" vertex="1" parent="1">
          <mxGeometry x="352.5" y="693" width="215" height="10" as="geometry" />
        </mxCell>
        <mxCell id="P9X_Pd3vxrv1BOMygBLZ-51" value="" style="rounded=0;whiteSpace=wrap;html=1;fillColor=#FFFFFF;" vertex="1" parent="1">
          <mxGeometry x="90" y="1000" width="710" height="260" as="geometry" />
        </mxCell>
        <mxCell id="P9X_Pd3vxrv1BOMygBLZ-52" value="" style="dashed=0;outlineConnect=0;html=1;align=center;labelPosition=center;verticalLabelPosition=bottom;verticalAlign=top;shape=mxgraph.webicons.chrome;gradientColor=#DFDEDE" vertex="1" parent="1">
          <mxGeometry x="150" y="1100" width="80" height="80" as="geometry" />
        </mxCell>
        <mxCell id="P9X_Pd3vxrv1BOMygBLZ-54" value="" style="fontColor=#0066CC;verticalAlign=top;verticalLabelPosition=bottom;labelPosition=center;align=center;html=1;outlineConnect=0;fillColor=#CCCCCC;strokeColor=#6881B3;gradientColor=none;gradientDirection=north;strokeWidth=2;shape=mxgraph.networks.mail_server;" vertex="1" parent="1">
          <mxGeometry x="630" y="1081.5" width="110" height="117" as="geometry" />
        </mxCell>
        <mxCell id="P9X_Pd3vxrv1BOMygBLZ-55" value="" style="dashed=0;outlineConnect=0;html=1;align=center;labelPosition=center;verticalLabelPosition=bottom;verticalAlign=top;shape=mxgraph.weblogos.edmodo;strokeColor=none;fillColor=#000000;" vertex="1" parent="1">
          <mxGeometry x="400.4" y="1103.1" width="69.2" height="73.8" as="geometry" />
        </mxCell>
        <mxCell id="P9X_Pd3vxrv1BOMygBLZ-56" value="" style="endArrow=classic;html=1;" edge="1" parent="1" source="P9X_Pd3vxrv1BOMygBLZ-52" target="P9X_Pd3vxrv1BOMygBLZ-55">
          <mxGeometry width="50" height="50" relative="1" as="geometry">
            <mxPoint x="265" y="1197" as="sourcePoint" />
            <mxPoint x="315" y="1147" as="targetPoint" />
          </mxGeometry>
        </mxCell>
        <mxCell id="P9X_Pd3vxrv1BOMygBLZ-59" value="中间人" style="text;html=1;strokeColor=none;fillColor=none;align=center;verticalAlign=middle;whiteSpace=wrap;rounded=0;" vertex="1" parent="1">
          <mxGeometry x="399.59999999999997" y="1070" width="70" height="20" as="geometry" />
        </mxCell>
        <mxCell id="P9X_Pd3vxrv1BOMygBLZ-60" value="正常的数据" style="text;html=1;strokeColor=none;fillColor=none;align=center;verticalAlign=middle;whiteSpace=wrap;rounded=0;" vertex="1" parent="1">
          <mxGeometry x="282.5" y="1156.9" width="70" height="20" as="geometry" />
        </mxCell>
        <mxCell id="P9X_Pd3vxrv1BOMygBLZ-61" value="被篡改后的数据" style="text;html=1;strokeColor=none;fillColor=none;align=center;verticalAlign=middle;whiteSpace=wrap;rounded=0;" vertex="1" parent="1">
          <mxGeometry x="495" y="1156.9" width="100" height="20" as="geometry" />
        </mxCell>
        <mxCell id="P9X_Pd3vxrv1BOMygBLZ-62" value="" style="endArrow=classic;html=1;" edge="1" parent="1" source="P9X_Pd3vxrv1BOMygBLZ-55" target="P9X_Pd3vxrv1BOMygBLZ-54">
          <mxGeometry width="50" height="50" relative="1" as="geometry">
            <mxPoint x="500" y="1210" as="sourcePoint" />
            <mxPoint x="550" y="1160" as="targetPoint" />
          </mxGeometry>
        </mxCell>
      </root>
    </mxGraphModel>
  </diagram>
</mxfile>
